<svg width="120" height="98" viewBox="0 0 120 98" fill="none" xmlns="http://www.w3.org/2000/svg">
<path d="M58.5511 97.4062H64.3187C65.6747 97.4062 66.7739 96.307 66.7739 94.9511L66.7739 37.5577C66.7739 36.2017 65.6747 35.1025 64.3187 35.1025H58.5511C57.1952 35.1025 56.096 36.2017 56.096 37.5577L56.096 94.9511C56.096 96.307 57.1952 97.4062 58.5511 97.4062Z" fill="url(#paint0_linear_1242_13532)"/>
<path d="M39.8188 35.1048H32.4663C31.7541 35.1048 31.0989 35.501 30.77 36.133L0.217638 94.6141C-0.442771 95.8857 0.479208 97.4059 1.91398 97.4059H9.28725C9.99945 97.4059 10.6547 97.0097 10.9836 96.3752L19.8305 79.3522C20.1594 78.7202 20.812 78.3214 21.5268 78.3214H41.2407C42.2973 78.3214 43.152 77.4668 43.152 76.4101V69.5548C43.152 68.4982 42.2973 67.6435 41.2407 67.6435H29.0607C27.6259 67.6435 26.7039 66.1233 27.3643 64.8517L41.5152 37.8915C42.1756 36.6198 41.2536 35.0996 39.8188 35.0996V35.1048Z" fill="url(#paint1_linear_1242_13532)"/>
<path d="M115.991 45.0857C111.529 38.4609 104.808 35.5888 97.1579 35.2987C94.9798 35.2159 92.8017 35.1641 90.6211 35.1304V35.1045H81.5515C80.4948 35.1045 79.6402 35.9591 79.6402 37.0158V43.8866C79.6402 44.9433 80.4948 45.7979 81.5515 45.7979H88.8522C91.1468 45.8316 93.4388 45.8912 95.7308 45.9948C102.884 46.3185 107.225 50.786 107.66 57.517C108.066 63.7792 104.145 65.7967 97.4168 67.2625C95.6816 67.6406 93.8558 67.5655 92.0714 67.6044C91.5897 67.6147 91.1054 67.6199 90.6211 67.6251L90.4683 67.6225H81.2278C80.4353 67.6225 79.793 68.2648 79.793 69.0573V95.1836C79.793 96.2402 80.6476 97.0949 81.7043 97.0949H88.5596C89.6163 97.0949 90.4709 96.2402 90.4709 95.1836V78.3134H90.6237C91.1676 78.3211 91.7114 78.3315 92.2553 78.3134C95.4045 78.2123 98.5486 77.9326 101.568 77.2489C117.926 73.5325 125.133 58.6617 115.994 45.0857H115.991Z" fill="url(#paint2_linear_1242_13532)"/>
<path d="M75.1598 7.19946C72.5829 7.98677 71.4667 9.103 70.6794 11.6799C70.4463 12.4439 69.3612 12.4439 69.1281 11.6799C68.3408 9.103 67.2245 7.98677 64.6476 7.19946C63.8836 6.96638 63.8836 5.88124 64.6476 5.64815C67.2245 4.86084 68.3408 3.74462 69.1281 1.16773C69.3612 0.403726 70.4463 0.403726 70.6794 1.16773C71.4667 3.74462 72.5829 4.86084 75.1598 5.64815C75.9238 5.88124 75.9238 6.96638 75.1598 7.19946Z" fill="url(#paint3_linear_1242_13532)"/>
<path d="M68.9312 18.9545C62.4618 20.4618 60.5194 22.4068 59.0121 28.8736C58.8386 29.6143 57.7871 29.6143 57.6162 28.8736C56.1089 22.4042 54.1639 20.4618 47.6971 18.9545C46.9564 18.781 46.9564 17.7295 47.6971 17.5586C54.1665 16.0513 56.1089 14.1063 57.6162 7.6395C57.7897 6.89881 58.8412 6.89881 59.0121 7.6395C60.5194 14.1089 62.4644 16.0513 68.9312 17.5586C69.6719 17.7321 69.6719 18.7836 68.9312 18.9545Z" fill="url(#paint4_linear_1242_13532)"/>
<defs>
<linearGradient id="paint0_linear_1242_13532" x1="-1.72471" y1="121.209" x2="105.238" y2="28.1411" gradientUnits="userSpaceOnUse">
<stop stop-color="#56C0A2"/>
<stop offset="1" stop-color="#2968B2"/>
</linearGradient>
<linearGradient id="paint1_linear_1242_13532" x1="-17.041" y1="103.606" x2="89.9219" y2="10.5376" gradientUnits="userSpaceOnUse">
<stop stop-color="#56C0A2"/>
<stop offset="1" stop-color="#2968B2"/>
</linearGradient>
<linearGradient id="paint2_linear_1242_13532" x1="8.37561" y1="132.816" x2="115.339" y2="39.7481" gradientUnits="userSpaceOnUse">
<stop stop-color="#56C0A2"/>
<stop offset="1" stop-color="#2968B2"/>
</linearGradient>
<linearGradient id="paint3_linear_1242_13532" x1="-41.6211" y1="103.461" x2="82.9009" y2="-4.88458" gradientUnits="userSpaceOnUse">
<stop stop-color="#56C0A2"/>
<stop offset="1" stop-color="#2968B2"/>
</linearGradient>
<linearGradient id="paint4_linear_1242_13532" x1="-27.8174" y1="93.1974" x2="79.1455" y2="0.128977" gradientUnits="userSpaceOnUse">
<stop stop-color="#56C0A2"/>
<stop offset="1" stop-color="#2968B2"/>
</linearGradient>
</defs>
</svg>
